<svg width="512" height="512" viewBox="0 0 512 512" fill="none" xmlns="http://www.w3.org/2000/svg">
<g clip-path="url(#clip0_10_24)">
<path d="M0 256C0 114.615 114.615 0 256 0C397.385 0 512 114.615 512 256C512 397.385 397.385 512 256 512C114.615 512 0 397.385 0 256Z" fill="white"/>
<circle cx="256" cy="256" r="256" fill="#FAFAFA"/>
<path d="M143.28 355L71.6 156.2H103.8L162.32 321.4L220.84 156.2H253.04L181.08 355H143.28ZM276.018 355V156.2H347.418C371.311 156.2 389.324 160.493 401.458 169.08C413.591 177.667 419.658 191.293 419.658 209.96C419.658 218.36 417.884 225.733 414.338 232.08C410.791 238.427 405.564 243.467 398.658 247.2C391.938 250.747 383.911 252.613 374.578 252.8L374.298 251.68C391.284 252.053 404.444 256.72 413.778 265.68C423.298 274.453 428.058 286.027 428.058 300.4C428.058 318.507 421.991 332.133 409.858 341.28C397.724 350.427 380.458 355 358.058 355H276.018ZM306.258 327.84H357.218C369.724 327.84 379.431 325.32 386.338 320.28C393.431 315.053 396.978 307.493 396.978 297.6C396.978 287.893 393.431 280.333 386.338 274.92C379.431 269.507 369.724 266.8 357.218 266.8H306.258V327.84ZM306.258 241.04H346.858C360.111 241.04 370.378 238.52 377.658 233.48C384.938 228.44 388.578 221.347 388.578 212.2C388.578 202.493 385.031 195.307 377.938 190.64C371.031 185.787 360.671 183.36 346.858 183.36H306.258V241.04Z" fill="#171717"/>
</g>
<defs>
<clipPath id="clip0_10_24">
<path d="M0 256C0 114.615 114.615 0 256 0C397.385 0 512 114.615 512 256C512 397.385 397.385 512 256 512C114.615 512 0 397.385 0 256Z" fill="white"/>
</clipPath>
</defs>
</svg>
